<svg width="400" height="120" xmlns="http://www.w3.org/2000/svg">
 <style type="text/css">.st0{fill:#00FFFF;}
	.st1{fill:#00FF00;}
	.st2{fill:none;stroke:#00FF00;stroke-width:1.5;stroke-linecap:round;}
	.st3{fill:#FF0000;}
	.st4{fill:#FF0000;stroke:#FF0000;stroke-width:2;stroke-linecap:round;}
	.st5{fill:none;stroke:#00FFFF;}
	.st6{fill:#231F20;}
	.st7{opacity:0.75;fill:none;stroke:#00FFFF;stroke-width:5;enable-background:new    ;}
	.st8{fill:none;stroke:#00FFFF;stroke-width:5;}
	.st9{fill:#00FFFF;fill-opacity:0.75;}
	.st10{fill:#FFFFFF;}
	.st11{fill:#00FFFF;fill-opacity:0.5;}
	.st12{opacity:0.5;fill:#00FFFF;fill-opacity:0.5;}</style>

 <g>
  <title>background</title>
  <rect height="402" width="582" y="-1" x="-1" fill="none" id="canvas_background"/>
 </g>
 <g>
  <title>Layer 1</title>
  <path d="m16.5,8.5c0.299999,0.1 0.4,0.5 0.200001,0.8c-0.1,0.099999 -0.1,0.2 -0.200001,0.2l-11.4,7c-0.5,0.299999 -0.8,0.1 -0.8,-0.5l0,-14c0,-0.5 0.4,-0.8 0.8,-0.5l11.4,7z" id="svg_1" class="st0"/>
  <path d="m24,1l2.200001,0c0.599998,0 1,0.4 1,1l0,14c0,0.6 -0.400002,1 -1,1l-2.200001,0c-0.6,0 -1,-0.4 -1,-1l0,-14c0,-0.5 0.4,-1 1,-1zm9.799999,0l2.200001,0c0.599998,0 1,0.4 1,1l0,14c0,0.6 -0.400002,1 -1,1l-2.200001,0c-0.599998,0 -1,-0.4 -1,-1l0,-14c0,-0.5 0.400002,-1 1,-1z" id="svg_2" class="st0"/>
  <path d="m81,1.4c0,-0.6 0.400002,-1 1,-1l5.400002,0c0.599998,0 0.699997,0.3 0.299995,0.7l-6,6c-0.399994,0.4 -0.699997,0.3 -0.699997,-0.3c0,0 0,-5.4 0,-5.4zm0,15.800001c0,0.599998 0.400002,1 1,1l5.400002,0c0.599998,0 0.699997,-0.300001 0.299995,-0.700001l-6,-6c-0.399994,-0.4 -0.699997,-0.3 -0.699997,0.3c0,0 0,5.400001 0,5.400001zm17.800003,-15.800001c0,-0.6 -0.400002,-1 -1,-1l-5.400002,0c-0.599998,0 -0.700005,0.3 -0.300003,0.7l6,6c0.400002,0.4 0.700005,0.3 0.700005,-0.3c0,0 0,-5.4 0,-5.4zm0,15.800001c0,0.599998 -0.400002,1 -1,1l-5.400002,0c-0.599998,0 -0.700005,-0.300001 -0.300003,-0.700001l6,-6c0.400002,-0.4 0.700005,-0.3 0.700005,0.3c0,0 0,5.400001 0,5.400001z" id="svg_3" class="st0"/>
  <path d="m112.699997,5c0,0.6 0.400002,1 1,1l4.100006,0c0.599998,0 0.699997,-0.3 0.299995,-0.7l-4.699997,-4.7c-0.400002,-0.4 -0.700005,-0.3 -0.700005,0.3c0,0 0,4.1 0,4.1zm-7.099998,1c0.599998,0 1,-0.4 1,-1l0,-4.1c0,-0.6 -0.299995,-0.7 -0.699997,-0.3l-4.700005,4.7c-0.399994,0.4 -0.299995,0.7 0.300003,0.7c0,0 4.099998,0 4.099998,0zm1,7.1c0,-0.6 -0.400002,-1 -1,-1l-4.099998,0c-0.599998,0 -0.699997,0.299999 -0.300003,0.7l4.700005,4.7c0.400002,0.4 0.699997,0.299999 0.699997,-0.299999c0,0 0,-4.1 0,-4.1zm7.099998,-1c-0.599998,0 -1,0.4 -1,1l0,4.1c0,0.5 0.300003,0.699999 0.700005,0.299999l4.699997,-4.7c0.400002,-0.400001 0.300003,-0.7 -0.299995,-0.7c0,0 -4.100006,0 -4.100006,0z" id="svg_4" class="st0"/>
  <path d="m67,5.8c-0.5,0.4 -1.199997,0.6 -1.800003,0.6l-3.199997,0c-0.599998,0 -1,0.4 -1,1l0,5.7c0,0.599999 0.400002,1 1,1l4.199997,0c0.300003,0.2 0.5,0.4 0.800003,0.599999l3.5,2.599999c0.400002,0.300001 0.800003,0.1 0.800003,-0.4l0,-13.4c0,-0.5 -0.400002,-0.7 -0.800003,-0.4l-3.5,2.7z" id="svg_5" class="st1"/>
  <path d="m73.900002,2.5c0,0 3.900002,-0.8 3.900002,7.7s-3.900002,7.8 -3.900002,7.8" id="svg_6" class="st2"/>
  <path d="m72.599998,6.4c0,0 2.599998,-0.4 2.599998,3.8s-2.599998,3.900001 -2.599998,3.900001" id="svg_7" class="st2"/>
  <path d="m47,5.8c-0.5,0.4 -1.200001,0.6 -1.799999,0.6l-3.200001,0c-0.599998,0 -1,0.4 -1,1l0,5.7c0,0.599999 0.400002,1 1,1l4.200001,0c0.299999,0.2 0.5,0.4 0.799999,0.599999l3.5,2.599999c0.400002,0.300001 0.799999,0.1 0.799999,-0.4l0,-13.4c0,-0.5 -0.399998,-0.7 -0.799999,-0.4l-3.5,2.7z" id="svg_8" class="st3"/>
  <path d="m52.799999,7l5.400002,5.4m-5.400002,0l5.400002,-5.4" id="svg_9" class="st4"/>
  <path d="m128.699997,8.6c-6.199997,-4.2 -6.5,7.799999 0,3.9m6.5,-3.9c-6.199997,-4.2 -6.5,7.799999 0,3.9" id="svg_10" class="st5"/>
  <path d="m122.199997,3.4l15.699997,0l0,13.1l-15.699997,0l0,-13.1zm-1.399994,-1.4l0,15.700001l18.300003,0l0,-15.700001l-18.300003,0z" id="svg_11" class="st0"/>
  <path d="m143.199997,3l14,0c1.100006,0 2,0.9 2,2l0,10c0,1.1 -0.899994,2 -2,2l-14,0c-1.099991,0 -2,-0.9 -2,-2l0,-10c0,-1.1 0.900009,-2 2,-2z" id="svg_12" class="st0"/>
  <path d="m146.399994,13.8c-0.800003,0 -1.600006,-0.400001 -2.100006,-1c-1.099991,-1.400001 -1,-3.400001 0.100006,-4.8c0.5,-0.6 2,-1.7 4.599991,0.2l-0.599991,0.8c-1.400009,-1 -2.600006,-1.1 -3.300003,-0.3c-0.800003,1 -0.800003,2.400001 -0.100006,3.5c0.700012,0.900001 1.900009,0.8 3.400009,-0.099999l0.5,0.9c-0.699997,0.5 -1.599991,0.7 -2.5,0.8l0,0zm7.5,0c-0.800003,0 -1.600006,-0.400001 -2.100006,-1c-1.099991,-1.400001 -1,-3.400001 0.100006,-4.8c0.5,-0.6 2,-1.7 4.599991,0.2l-0.499985,0.8c-1.399994,-1 -2.600006,-1.1 -3.300003,-0.3c-0.800003,1 -0.800003,2.400001 -0.099991,3.5c0.699997,0.900001 1.899994,0.8 3.399994,-0.099999l0.5,0.9c-0.800003,0.5 -1.699997,0.7 -2.600006,0.8l0,0z" id="svg_13" class="st6"/>
  <path d="m60.299999,77c0.600002,0.199997 0.799999,0.800003 0.600002,1.400002c-0.100002,0.299995 -0.300003,0.5 -0.600002,0.599998l-30.299999,17.5c-1,0.599998 -1.700001,0.099998 -1.700001,-1l0,-35c0,-1.099998 0.800001,-1.5 1.700001,-1l30.299999,17.5z" id="svg_14" class="st0"/>
  <path d="m2.5,79c0,-20.700001 16.799999,-37.5 37.5,-37.5s37.5,16.799999 37.5,37.5s-16.799999,37.5 -37.5,37.5s-37.5,-16.800003 -37.5,-37.5z" id="svg_15" class="st7"/>
  <path d="m140.300003,77c0.599991,0.199997 0.800003,0.800003 0.599991,1.400002c-0.099991,0.299995 -0.299988,0.5 -0.599991,0.599998l-30.300003,17.5c-1,0.599998 -1.699997,0.099998 -1.699997,-1l0,-35c0,-1.099998 0.799995,-1.5 1.699997,-1l30.300003,17.5z" id="svg_16" class="st0"/>
  <path d="m82.5,79c0,-20.700001 16.800003,-37.5 37.5,-37.5s37.5,16.799999 37.5,37.5s-16.800003,37.5 -37.5,37.5s-37.5,-16.800003 -37.5,-37.5z" id="svg_17" class="st8"/>
  <path d="m178,9.4c0,0.400001 -0.399994,0.700001 -0.899994,0.700001c-0.100006,0 -0.200012,0 -0.200012,-0.1l-4.899994,-1.8c-0.5,-0.2 -0.600006,-0.6 -0.100006,-0.8l6.200012,-3.6c0.5,-0.3 0.799988,-0.1 0.699997,0.5l-0.800003,5.099999l0,0z" id="svg_18" class="st0"/>
  <path d="m169.399994,15.9c-1,0 -2,-0.2 -2.900009,-0.7c-2,-1 -3.199997,-3 -3.199997,-5.2c0.100006,-3.4 2.900009,-6 6.300003,-6c2.5,0.1 4.800003,1.7 5.600006,4.1l0.099991,-0.1l2.100006,1.1c-0.600006,-4.400001 -4.699997,-7.5 -9.100006,-6.9c-3.899994,0.6 -6.899994,3.9 -7,7.9c0,2.9 1.699997,5.599999 4.300003,7c1.199997,0.6 2.5,0.9 3.800003,1c2.599991,0 5,-1.200001 6.599991,-3.3l-1.799988,-0.900001c-1.199997,1.200001 -3,2 -4.800003,2l0,0z" id="svg_19" class="st0"/>
  <path d="m183.399994,3.2c0.800003,0 1.5,0.7 1.5,1.5s-0.699997,1.5 -1.5,1.5s-1.5,-0.7 -1.5,-1.5c0,-0.9 0.700012,-1.5 1.5,-1.5zm5.100006,0l8.5,0c0.899994,0 1.5,0.7 1.5,1.5s-0.699997,1.5 -1.5,1.5l-8.5,0c-0.899994,0 -1.5,-0.7 -1.5,-1.5c-0.100006,-0.9 0.600006,-1.5 1.5,-1.5zm-5.100006,5c0.800003,0 1.5,0.7 1.5,1.5s-0.699997,1.5 -1.5,1.5s-1.5,-0.7 -1.5,-1.5c0,-0.9 0.700012,-1.5 1.5,-1.5zm5.100006,0l8.5,0c0.899994,0 1.5,0.7 1.5,1.5s-0.699997,1.5 -1.5,1.5l-8.5,0c-0.899994,0 -1.5,-0.7 -1.5,-1.5c-0.100006,-0.9 0.600006,-1.5 1.5,-1.5zm-5.100006,5c0.800003,0 1.5,0.7 1.5,1.5s-0.699997,1.500001 -1.5,1.500001s-1.5,-0.700001 -1.5,-1.500001c0,-0.9 0.700012,-1.5 1.5,-1.5zm5.100006,0l8.5,0c0.899994,0 1.5,0.7 1.5,1.5s-0.699997,1.500001 -1.5,1.500001l-8.5,0c-0.899994,0 -1.5,-0.700001 -1.5,-1.500001c-0.100006,-0.9 0.600006,-1.5 1.5,-1.5z" id="svg_20" class="st0"/>
  <path d="m195.899994,55.400002l-3.900009,-11c10.100006,-3.100002 19.800003,0 19.800003,0l-3.899994,11c0,0 -4.599991,-1.700001 -12,0z" id="svg_21" class="st0"/>
  <path d="m182.899994,63.299999l-9.5,-6.700001c6.5,-8.299999 16.199997,-11.399998 16.199997,-11.399998l3.100006,11.200001c0,0 -4.699997,1.299999 -9.800003,6.899998z" id="svg_22" class="st9"/>
  <path d="m201.899994,80.099998" id="svg_23" class="st10"/>
  <path d="m176.699997,78.599998l-11.599991,0.700005c-0.100006,-10.600006 5.599991,-19.000004 5.599991,-19.000004l9.400009,6.899998c0,-0.099998 -2.900009,3.900002 -3.400009,11.400002z" id="svg_24" class="st11"/>
  <path d="m181.699997,94.599998l-8.699997,7.700005c-6.600006,-8.200005 -7.399994,-18.400002 -7.399994,-18.400002l11.599991,-0.5c0.100006,0.099998 0.300003,4.900002 4.5,11.199997z" id="svg_25" class="st11"/>
  <path d="m194,103.599998l-2.600006,11.400002c-10.199997,-2.800003 -16.799988,-10.599998 -16.799988,-10.599998l9.199997,-7.200005c0.099991,0 3.099991,3.800003 10.199997,6.400002z" id="svg_26" class="st12"/>
 </g>
</svg>